<?xml version="1.0" encoding="utf-8"?><svg xmlns="http://www.w3.org/2000/svg" xmlns:xlink="http://www.w3.org/1999/xlink"><symbol viewBox="0 0 16 18" id="account" xmlns="http://www.w3.org/2000/svg">
    <g clip-path="url(#aclip0_1502_4544)">
        <path d="M11 10.5938C10.0391 10.5938 9.57701 11.125 8 11.125C6.42299 11.125 5.96429 10.5938 5 10.5938C2.51562 10.5938 0.5 12.5926 0.5 15.0562V15.9062C0.5 16.7861 1.21987 17.5 2.10714 17.5H13.8929C14.7801 17.5 15.5 16.7861 15.5 15.9062V15.0562C15.5 12.5926 13.4844 10.5938 11 10.5938ZM13.8929 15.9062H2.10714V15.0562C2.10714 13.4758 3.40625 12.1875 5 12.1875C5.48884 12.1875 6.28237 12.7188 8 12.7188C9.73103 12.7188 10.5078 12.1875 11 12.1875C12.5938 12.1875 13.8929 13.4758 13.8929 15.0562V15.9062ZM8 10.0625C10.6618 10.0625 12.8214 7.9209 12.8214 5.28125C12.8214 2.6416 10.6618 0.5 8 0.5C5.33817 0.5 3.17857 2.6416 3.17857 5.28125C3.17857 7.9209 5.33817 10.0625 8 10.0625ZM8 2.09375C9.7712 2.09375 11.2143 3.5248 11.2143 5.28125C11.2143 7.0377 9.7712 8.46875 8 8.46875C6.22879 8.46875 4.78571 7.0377 4.78571 5.28125C4.78571 3.5248 6.22879 2.09375 8 2.09375Z"/>
    </g>
    <defs>
        <clipPath id="aclip0_1502_4544">
            <rect width="15" height="17" transform="translate(0.5 0.5)"/>
        </clipPath>
    </defs>
</symbol><symbol viewBox="0 0 21 20" id="cart" xmlns="http://www.w3.org/2000/svg">
    <path d="M4.66797 5.8335H16.1596C16.3925 5.8335 16.6228 5.88231 16.8356 5.97675C17.0484 6.0712 17.2391 6.20919 17.3953 6.38184C17.5516 6.55449 17.6699 6.75796 17.7427 6.97914C17.8155 7.20032 17.8411 7.4343 17.818 7.666L17.318 12.666C17.2768 13.0773 17.0844 13.4586 16.7779 13.7359C16.4715 14.0132 16.0729 14.1668 15.6596 14.1668H7.7013C7.31586 14.167 6.94228 14.0335 6.64417 13.7892C6.34606 13.5449 6.14185 13.2048 6.0663 12.8268L4.66797 5.8335Z" stroke-width="2" stroke-linejoin="round"/>
    <path d="M4.66797 5.83333L3.99297 3.13083C3.94783 2.95063 3.84376 2.79067 3.69731 2.67638C3.55085 2.56209 3.37041 2.5 3.18464 2.5H2.16797" stroke-width="2" stroke-linecap="round" stroke-linejoin="round"/>
    <path d="M7.16797 17.5H8.83463" stroke-width="2" stroke-linecap="round" stroke-linejoin="round"/>
    <path d="M13.8359 17.5H15.5026" stroke-width="2" stroke-linecap="round" stroke-linejoin="round"/>
</symbol><symbol viewBox="0 0 21 20" id="heart" xmlns="http://www.w3.org/2000/svg">
    <path d="M6.33464 2.5C4.0338 2.5 2.16797 4.34667 2.16797 6.625C2.16797 8.46417 2.89714 12.8292 10.0746 17.2417C10.2032 17.3199 10.3508 17.3613 10.5013 17.3613C10.6518 17.3613 10.7994 17.3199 10.928 17.2417C18.1055 12.8292 18.8346 8.46417 18.8346 6.625C18.8346 4.34667 16.9688 2.5 14.668 2.5C12.3671 2.5 10.5013 5 10.5013 5C10.5013 5 8.63547 2.5 6.33464 2.5Z" stroke-width="2" stroke-linecap="round" stroke-linejoin="round"/>
</symbol></svg>