<?xml version="1.0" encoding="utf-8"?><svg xmlns="http://www.w3.org/2000/svg" xmlns:xlink="http://www.w3.org/1999/xlink"><symbol viewBox="0 0 16 18" id="account" xmlns="http://www.w3.org/2000/svg">
    <g clip-path="url(#aclip0_1502_4544)">
        <path d="M11 10.5938C10.0391 10.5938 9.57701 11.125 8 11.125C6.42299 11.125 5.96429 10.5938 5 10.5938C2.51562 10.5938 0.5 12.5926 0.5 15.0562V15.9062C0.5 16.7861 1.21987 17.5 2.10714 17.5H13.8929C14.7801 17.5 15.5 16.7861 15.5 15.9062V15.0562C15.5 12.5926 13.4844 10.5938 11 10.5938ZM13.8929 15.9062H2.10714V15.0562C2.10714 13.4758 3.40625 12.1875 5 12.1875C5.48884 12.1875 6.28237 12.7188 8 12.7188C9.73103 12.7188 10.5078 12.1875 11 12.1875C12.5938 12.1875 13.8929 13.4758 13.8929 15.0562V15.9062ZM8 10.0625C10.6618 10.0625 12.8214 7.9209 12.8214 5.28125C12.8214 2.6416 10.6618 0.5 8 0.5C5.33817 0.5 3.17857 2.6416 3.17857 5.28125C3.17857 7.9209 5.33817 10.0625 8 10.0625ZM8 2.09375C9.7712 2.09375 11.2143 3.5248 11.2143 5.28125C11.2143 7.0377 9.7712 8.46875 8 8.46875C6.22879 8.46875 4.78571 7.0377 4.78571 5.28125C4.78571 3.5248 6.22879 2.09375 8 2.09375Z"/>
    </g>
    <defs>
        <clipPath id="aclip0_1502_4544">
            <rect width="15" height="17" transform="translate(0.5 0.5)"/>
        </clipPath>
    </defs>
</symbol><symbol viewBox="0 0 18 20" id="arrow-right-bottom" xmlns="http://www.w3.org/2000/svg">
    <path d="M3 3.5L15 16.5M15 16.5V4.02M15 16.5H3.48" stroke-width="2.5" stroke-linecap="round" stroke-linejoin="round"/>
</symbol><symbol viewBox="0 0 21 20" id="cart" xmlns="http://www.w3.org/2000/svg">
    <path d="M4.66797 5.8335H16.1596C16.3925 5.8335 16.6228 5.88231 16.8356 5.97675C17.0484 6.0712 17.2391 6.20919 17.3953 6.38184C17.5516 6.55449 17.6699 6.75796 17.7427 6.97914C17.8155 7.20032 17.8411 7.4343 17.818 7.666L17.318 12.666C17.2768 13.0773 17.0844 13.4586 16.7779 13.7359C16.4715 14.0132 16.0729 14.1668 15.6596 14.1668H7.7013C7.31586 14.167 6.94228 14.0335 6.64417 13.7892C6.34606 13.5449 6.14185 13.2048 6.0663 12.8268L4.66797 5.8335Z" stroke-width="2" stroke-linejoin="round"/>
    <path d="M4.66797 5.83333L3.99297 3.13083C3.94783 2.95063 3.84376 2.79067 3.69731 2.67638C3.55085 2.56209 3.37041 2.5 3.18464 2.5H2.16797" stroke-width="2" stroke-linecap="round" stroke-linejoin="round"/>
    <path d="M7.16797 17.5H8.83463" stroke-width="2" stroke-linecap="round" stroke-linejoin="round"/>
    <path d="M13.8359 17.5H15.5026" stroke-width="2" stroke-linecap="round" stroke-linejoin="round"/>
</symbol><symbol viewBox="0 0 21 20" id="heart" xmlns="http://www.w3.org/2000/svg">
    <path d="M6.33464 2.5C4.0338 2.5 2.16797 4.34667 2.16797 6.625C2.16797 8.46417 2.89714 12.8292 10.0746 17.2417C10.2032 17.3199 10.3508 17.3613 10.5013 17.3613C10.6518 17.3613 10.7994 17.3199 10.928 17.2417C18.1055 12.8292 18.8346 8.46417 18.8346 6.625C18.8346 4.34667 16.9688 2.5 14.668 2.5C12.3671 2.5 10.5013 5 10.5013 5C10.5013 5 8.63547 2.5 6.33464 2.5Z" stroke-width="2" stroke-linecap="round" stroke-linejoin="round"/>
</symbol><symbol viewBox="0 0 35 67" id="hero-slider-arrow-left" xmlns="http://www.w3.org/2000/svg">
    <g clip-path="url(#eclip0_382_24880)">
        <path d="M33.8935 6.13589C34.1905 5.82163 34.4226 5.45196 34.5767 5.04798C34.7309 4.644 34.8039 4.21362 34.7916 3.78142C34.7794 3.34921 34.6822 2.92365 34.5055 2.52903C34.3288 2.1344 34.0761 1.77844 33.7619 1.48148C33.4476 1.18451 33.0779 0.952346 32.6739 0.798245C32.27 0.644144 31.8396 0.571122 31.4074 0.583348C30.9752 0.595574 30.5496 0.69281 30.155 0.869502C29.7604 1.04619 29.4044 1.29888 29.1074 1.61314L1.12827 31.2381C0.550461 31.8493 0.228516 32.6585 0.228516 33.4995C0.228516 34.3406 0.550461 35.1497 1.12827 35.7609L29.1074 65.3892C29.4024 65.7103 29.7583 65.9697 30.1544 66.1521C30.5505 66.3345 30.9788 66.4364 31.4146 66.4519C31.8504 66.4674 32.285 66.3961 32.693 66.2423C33.101 66.0884 33.4744 65.855 33.7915 65.5556C34.1085 65.2562 34.3629 64.8968 34.5399 64.4983C34.7169 64.0997 34.8129 63.67 34.8224 63.234C34.8319 62.798 34.7547 62.3645 34.5952 61.9587C34.4358 61.5528 34.1972 61.1826 33.8935 60.8697L8.04735 33.4995L33.8935 6.13589Z"/>
    </g>
    <defs>
        <clipPath id="eclip0_382_24880">
            <rect width="35" height="67"/>
        </clipPath>
    </defs>
</symbol><symbol viewBox="0 0 36 67" id="hero-slider-arrow-right" xmlns="http://www.w3.org/2000/svg">
    <g clip-path="url(#fclip0_382_25052)">
        <path d="M1.92875 6.13589C1.63178 5.82163 1.39962 5.45196 1.24552 5.04798C1.09142 4.644 1.01839 4.21362 1.03062 3.78142C1.04284 3.34921 1.14008 2.92365 1.31677 2.52903C1.49347 2.1344 1.74615 1.77844 2.06041 1.48148C2.37467 1.18451 2.74435 0.952346 3.14833 0.798245C3.55231 0.644144 3.98269 0.571122 4.41489 0.583348C4.84709 0.595574 5.27266 0.69281 5.66728 0.869502C6.0619 1.04619 6.41786 1.29888 6.71483 1.61314L34.694 31.2381C35.2718 31.8493 35.5938 32.6585 35.5938 33.4995C35.5938 34.3406 35.2718 35.1497 34.694 35.7609L6.71483 65.3892C6.41982 65.7103 6.06394 65.9697 5.66787 66.1521C5.27179 66.3345 4.84342 66.4364 4.40762 66.4519C3.97182 66.4674 3.53728 66.3961 3.12926 66.2423C2.72124 66.0884 2.34785 65.855 2.0308 65.5556C1.71374 65.2562 1.45934 64.8968 1.28236 64.4983C1.10537 64.0997 1.00935 63.67 0.999855 63.234C0.99036 62.798 1.06758 62.3645 1.22705 61.9587C1.38651 61.5528 1.62503 61.1826 1.92875 60.8697L27.7749 33.4995L1.92875 6.13589Z"/>
    </g>
    <defs>
        <clipPath id="fclip0_382_25052">
            <rect width="35" height="67" transform="matrix(-1 0 0 1 35.8223 0)"/>
        </clipPath>
    </defs>
</symbol></svg>