<?xml version="1.0" encoding="utf-8"?><svg xmlns="http://www.w3.org/2000/svg" xmlns:xlink="http://www.w3.org/1999/xlink"><symbol viewBox="0 0 16 18" id="account" xmlns="http://www.w3.org/2000/svg">
    <g clip-path="url(#aclip0_1502_4544)">
        <path d="M11 10.5938C10.0391 10.5938 9.57701 11.125 8 11.125C6.42299 11.125 5.96429 10.5938 5 10.5938C2.51562 10.5938 0.5 12.5926 0.5 15.0562V15.9062C0.5 16.7861 1.21987 17.5 2.10714 17.5H13.8929C14.7801 17.5 15.5 16.7861 15.5 15.9062V15.0562C15.5 12.5926 13.4844 10.5938 11 10.5938ZM13.8929 15.9062H2.10714V15.0562C2.10714 13.4758 3.40625 12.1875 5 12.1875C5.48884 12.1875 6.28237 12.7188 8 12.7188C9.73103 12.7188 10.5078 12.1875 11 12.1875C12.5938 12.1875 13.8929 13.4758 13.8929 15.0562V15.9062ZM8 10.0625C10.6618 10.0625 12.8214 7.9209 12.8214 5.28125C12.8214 2.6416 10.6618 0.5 8 0.5C5.33817 0.5 3.17857 2.6416 3.17857 5.28125C3.17857 7.9209 5.33817 10.0625 8 10.0625ZM8 2.09375C9.7712 2.09375 11.2143 3.5248 11.2143 5.28125C11.2143 7.0377 9.7712 8.46875 8 8.46875C6.22879 8.46875 4.78571 7.0377 4.78571 5.28125C4.78571 3.5248 6.22879 2.09375 8 2.09375Z"/>
    </g>
    <defs>
        <clipPath id="aclip0_1502_4544">
            <rect width="15" height="17" transform="translate(0.5 0.5)"/>
        </clipPath>
    </defs>
</symbol><symbol viewBox="0 0 18 20" id="arrow-right-bottom" xmlns="http://www.w3.org/2000/svg">
    <path d="M3 3.5L15 16.5M15 16.5V4.02M15 16.5H3.48" stroke-width="2.5" stroke-linecap="round" stroke-linejoin="round"/>
</symbol><symbol viewBox="0 0 21 20" id="cart" xmlns="http://www.w3.org/2000/svg">
    <path d="M4.66797 5.8335H16.1596C16.3925 5.8335 16.6228 5.88231 16.8356 5.97675C17.0484 6.0712 17.2391 6.20919 17.3953 6.38184C17.5516 6.55449 17.6699 6.75796 17.7427 6.97914C17.8155 7.20032 17.8411 7.4343 17.818 7.666L17.318 12.666C17.2768 13.0773 17.0844 13.4586 16.7779 13.7359C16.4715 14.0132 16.0729 14.1668 15.6596 14.1668H7.7013C7.31586 14.167 6.94228 14.0335 6.64417 13.7892C6.34606 13.5449 6.14185 13.2048 6.0663 12.8268L4.66797 5.8335Z" stroke-width="2" stroke-linejoin="round"/>
    <path d="M4.66797 5.83333L3.99297 3.13083C3.94783 2.95063 3.84376 2.79067 3.69731 2.67638C3.55085 2.56209 3.37041 2.5 3.18464 2.5H2.16797" stroke-width="2" stroke-linecap="round" stroke-linejoin="round"/>
    <path d="M7.16797 17.5H8.83463" stroke-width="2" stroke-linecap="round" stroke-linejoin="round"/>
    <path d="M13.8359 17.5H15.5026" stroke-width="2" stroke-linecap="round" stroke-linejoin="round"/>
</symbol><symbol viewBox="0 0 21 20" id="heart" xmlns="http://www.w3.org/2000/svg">
    <path d="M6.33464 2.5C4.0338 2.5 2.16797 4.34667 2.16797 6.625C2.16797 8.46417 2.89714 12.8292 10.0746 17.2417C10.2032 17.3199 10.3508 17.3613 10.5013 17.3613C10.6518 17.3613 10.7994 17.3199 10.928 17.2417C18.1055 12.8292 18.8346 8.46417 18.8346 6.625C18.8346 4.34667 16.9688 2.5 14.668 2.5C12.3671 2.5 10.5013 5 10.5013 5C10.5013 5 8.63547 2.5 6.33464 2.5Z" stroke-width="2" stroke-linecap="round" stroke-linejoin="round"/>
</symbol><symbol viewBox="0 0 35 67" id="hero-slider-arrow-left" xmlns="http://www.w3.org/2000/svg">
    <g clip-path="url(#eclip0_382_24880)">
        <path d="M33.8935 6.13589C34.1905 5.82163 34.4226 5.45196 34.5767 5.04798C34.7309 4.644 34.8039 4.21362 34.7916 3.78142C34.7794 3.34921 34.6822 2.92365 34.5055 2.52903C34.3288 2.1344 34.0761 1.77844 33.7619 1.48148C33.4476 1.18451 33.0779 0.952346 32.6739 0.798245C32.27 0.644144 31.8396 0.571122 31.4074 0.583348C30.9752 0.595574 30.5496 0.69281 30.155 0.869502C29.7604 1.04619 29.4044 1.29888 29.1074 1.61314L1.12827 31.2381C0.550461 31.8493 0.228516 32.6585 0.228516 33.4995C0.228516 34.3406 0.550461 35.1497 1.12827 35.7609L29.1074 65.3892C29.4024 65.7103 29.7583 65.9697 30.1544 66.1521C30.5505 66.3345 30.9788 66.4364 31.4146 66.4519C31.8504 66.4674 32.285 66.3961 32.693 66.2423C33.101 66.0884 33.4744 65.855 33.7915 65.5556C34.1085 65.2562 34.3629 64.8968 34.5399 64.4983C34.7169 64.0997 34.8129 63.67 34.8224 63.234C34.8319 62.798 34.7547 62.3645 34.5952 61.9587C34.4358 61.5528 34.1972 61.1826 33.8935 60.8697L8.04735 33.4995L33.8935 6.13589Z"/>
    </g>
    <defs>
        <clipPath id="eclip0_382_24880">
            <rect width="35" height="67"/>
        </clipPath>
    </defs>
</symbol><symbol viewBox="0 0 36 67" id="hero-slider-arrow-right" xmlns="http://www.w3.org/2000/svg">
    <g clip-path="url(#fclip0_382_25052)">
        <path d="M1.92875 6.13589C1.63178 5.82163 1.39962 5.45196 1.24552 5.04798C1.09142 4.644 1.01839 4.21362 1.03062 3.78142C1.04284 3.34921 1.14008 2.92365 1.31677 2.52903C1.49347 2.1344 1.74615 1.77844 2.06041 1.48148C2.37467 1.18451 2.74435 0.952346 3.14833 0.798245C3.55231 0.644144 3.98269 0.571122 4.41489 0.583348C4.84709 0.595574 5.27266 0.69281 5.66728 0.869502C6.0619 1.04619 6.41786 1.29888 6.71483 1.61314L34.694 31.2381C35.2718 31.8493 35.5938 32.6585 35.5938 33.4995C35.5938 34.3406 35.2718 35.1497 34.694 35.7609L6.71483 65.3892C6.41982 65.7103 6.06394 65.9697 5.66787 66.1521C5.27179 66.3345 4.84342 66.4364 4.40762 66.4519C3.97182 66.4674 3.53728 66.3961 3.12926 66.2423C2.72124 66.0884 2.34785 65.855 2.0308 65.5556C1.71374 65.2562 1.45934 64.8968 1.28236 64.4983C1.10537 64.0997 1.00935 63.67 0.999855 63.234C0.99036 62.798 1.06758 62.3645 1.22705 61.9587C1.38651 61.5528 1.62503 61.1826 1.92875 60.8697L27.7749 33.4995L1.92875 6.13589Z"/>
    </g>
    <defs>
        <clipPath id="fclip0_382_25052">
            <rect width="35" height="67" transform="matrix(-1 0 0 1 35.8223 0)"/>
        </clipPath>
    </defs>
</symbol><symbol viewBox="0 0 26 26" id="instagram" xmlns="http://www.w3.org/2000/svg">
    <g clip-path="url(#gclip0_127_3071)">
        <path fill-rule="evenodd" clip-rule="evenodd" d="M7.67724 0.167302C9.05389 0.103927 9.49282 0.0898438 12.9996 0.0898438C16.5063 0.0898438 16.9452 0.105101 18.3207 0.167302C19.6962 0.229503 20.6351 0.448969 21.4566 0.767017C22.3169 1.09211 23.0973 1.60028 23.7428 2.2575C24.4 2.90182 24.907 3.68109 25.2309 4.54252C25.5502 5.36405 25.7685 6.30294 25.8318 7.67607C25.8952 9.05506 25.9093 9.49399 25.9093 12.9996C25.9093 16.5063 25.894 16.9452 25.8318 18.3219C25.7696 19.695 25.5502 20.6339 25.2309 21.4554C24.907 22.317 24.3992 23.0976 23.7428 23.7428C23.0973 24.4 22.3169 24.907 21.4566 25.2309C20.6351 25.5502 19.6962 25.7685 18.3231 25.8318C16.9452 25.8952 16.5063 25.9093 12.9996 25.9093C9.49282 25.9093 9.05389 25.894 7.67724 25.8318C6.30412 25.7696 5.36523 25.5502 4.5437 25.2309C3.68217 24.907 2.90161 24.3992 2.25633 23.7428C1.59955 23.0981 1.0913 22.3179 0.767017 21.4566C0.448969 20.6351 0.230677 19.6962 0.167302 18.3231C0.103927 16.9441 0.0898438 16.5051 0.0898438 12.9996C0.0898438 9.49282 0.105101 9.05389 0.167302 7.67841C0.229503 6.30294 0.448969 5.36405 0.767017 4.54252C1.09178 3.68119 1.60042 2.90101 2.2575 2.25633C2.90186 1.5997 3.68165 1.09145 4.54252 0.767017C5.36405 0.448969 6.30294 0.230677 7.67607 0.167302H7.67724ZM18.2163 2.49105C16.8549 2.42885 16.4465 2.41594 12.9996 2.41594C9.55267 2.41594 9.14425 2.42885 7.78286 2.49105C6.52358 2.54856 5.84054 2.75864 5.38518 2.93585C4.78311 3.17057 4.3524 3.44872 3.90056 3.90056C3.47224 4.31725 3.14262 4.82452 2.93585 5.38518C2.75864 5.84054 2.54856 6.52358 2.49105 7.78286C2.42885 9.14425 2.41594 9.55267 2.41594 12.9996C2.41594 16.4465 2.42885 16.8549 2.49105 18.2163C2.54856 19.4756 2.75864 20.1586 2.93585 20.614C3.14241 21.1738 3.47219 21.6819 3.90056 22.0986C4.31719 22.5269 4.82537 22.8567 5.38518 23.0633C5.84054 23.2405 6.52358 23.4506 7.78286 23.5081C9.14425 23.5703 9.5515 23.5832 12.9996 23.5832C16.4476 23.5832 16.8549 23.5703 18.2163 23.5081C19.4756 23.4506 20.1586 23.2405 20.614 23.0633C21.216 22.8286 21.6467 22.5504 22.0986 22.0986C22.5269 21.6819 22.8567 21.1738 23.0633 20.614C23.2405 20.1586 23.4506 19.4756 23.5081 18.2163C23.5703 16.8549 23.5832 16.4465 23.5832 12.9996C23.5832 9.55267 23.5703 9.14425 23.5081 7.78286C23.4506 6.52358 23.2405 5.84054 23.0633 5.38518C22.8286 4.78311 22.5504 4.3524 22.0986 3.90056C21.6819 3.47227 21.1746 3.14265 20.614 2.93585C20.1586 2.75864 19.4756 2.54856 18.2163 2.49105ZM11.3506 16.9793C12.2715 17.3626 13.2969 17.4144 14.2517 17.1257C15.2065 16.837 16.0315 16.2257 16.5857 15.3964C17.1399 14.567 17.3889 13.571 17.2903 12.5784C17.1918 11.5858 16.7516 10.6582 16.0451 9.95405C15.5947 9.50394 15.0501 9.15929 14.4505 8.94491C13.851 8.73053 13.2113 8.65176 12.5776 8.71426C11.944 8.77676 11.332 8.97898 10.7859 9.30637C10.2398 9.63375 9.77301 10.0781 9.41923 10.6076C9.06546 11.137 8.83347 11.7383 8.73996 12.3681C8.64646 12.998 8.69376 13.6407 8.87848 14.2501C9.06319 14.8594 9.38071 15.4203 9.80819 15.8922C10.2357 16.3641 10.7625 16.7354 11.3506 16.9793ZM8.30747 8.30747C8.92364 7.69129 9.65515 7.20252 10.4602 6.86905C11.2653 6.53557 12.1282 6.36394 12.9996 6.36394C13.871 6.36394 14.7338 6.53557 15.5389 6.86905C16.344 7.20252 17.0755 7.69129 17.6917 8.30747C18.3078 8.92364 18.7966 9.65515 19.1301 10.4602C19.4636 11.2653 19.6352 12.1282 19.6352 12.9996C19.6352 13.871 19.4636 14.7338 19.1301 15.5389C18.7966 16.344 18.3078 17.0755 17.6917 17.6917C16.4472 18.9361 14.7594 19.6352 12.9996 19.6352C11.2397 19.6352 9.55189 18.9361 8.30747 17.6917C7.06305 16.4472 6.36394 14.7594 6.36394 12.9996C6.36394 11.2397 7.06305 9.55189 8.30747 8.30747ZM21.1069 7.35215C21.2596 7.20811 21.3818 7.0349 21.4664 6.84277C21.5509 6.65064 21.596 6.4435 21.5991 6.23362C21.6022 6.02373 21.5631 5.81536 21.4842 5.62085C21.4053 5.42634 21.2881 5.24964 21.1397 5.10121C20.9913 4.95278 20.8146 4.83564 20.62 4.75673C20.4255 4.67782 20.2172 4.63873 20.0073 4.64179C19.7974 4.64485 19.5903 4.68999 19.3981 4.77454C19.206 4.85909 19.0328 4.98133 18.8887 5.13402C18.6086 5.43098 18.4553 5.82542 18.4612 6.23362C18.4672 6.64181 18.632 7.03161 18.9206 7.32028C19.2093 7.60894 19.5991 7.77374 20.0073 7.7797C20.4155 7.78565 20.8099 7.63228 21.1069 7.35215Z"/>
    </g>
    <defs>
        <clipPath id="gclip0_127_3071">
            <rect width="26" height="26"/>
        </clipPath>
    </defs>
</symbol><symbol viewBox="0 0 26 26" id="tiktok" xmlns="http://www.w3.org/2000/svg">
    <rect x="1" y="1" width="24" height="24" rx="4" stroke-width="2"/>
    <path d="M18.3815 8.99385C18.2802 8.94498 18.1817 8.89141 18.0862 8.83333C17.8086 8.66207 17.5542 8.46028 17.3282 8.23232C16.7623 7.6282 16.551 7.01537 16.4737 6.5867H16.4763C16.4117 6.2302 16.4383 6 16.443 6H13.8666V15.297C13.8666 15.4214 13.8666 15.5452 13.8612 15.6672C13.8612 15.6821 13.8592 15.6958 13.8586 15.7126C13.8586 15.7188 13.8586 15.7263 13.8566 15.7331V15.7387C13.8295 16.0722 13.715 16.3944 13.5232 16.6769C13.3314 16.9594 13.0682 17.1936 12.7567 17.3588C12.4316 17.5314 12.064 17.6219 11.6901 17.6214C10.4902 17.6214 9.51695 16.7081 9.51695 15.5801C9.51695 14.4515 10.4902 13.5381 11.6901 13.5381C11.9174 13.5381 12.1434 13.5717 12.3594 13.6377L12.3627 11.1888C11.7068 11.1099 11.0404 11.1587 10.4057 11.3321C9.77098 11.5056 9.18169 11.8 8.67502 12.1968C8.23096 12.5567 7.85762 12.9862 7.57179 13.466C7.46313 13.6408 7.0525 14.3445 7.00317 15.4855C6.97184 16.1326 7.18049 16.8045 7.27981 17.0814V17.0876C7.34181 17.2506 7.58445 17.808 7.97908 18.2778C8.29732 18.6548 8.67332 18.986 9.09498 19.2608V19.2546L9.10098 19.2608C10.3475 20.0509 11.7307 19.9993 11.7307 19.9993C11.9701 19.99 12.772 19.9993 13.6826 19.5968C14.6925 19.1501 15.2671 18.485 15.2671 18.485C15.6345 18.0875 15.9266 17.6345 16.131 17.1454C16.3643 16.5731 16.4417 15.8874 16.4417 15.6137V10.6805C16.473 10.698 16.8896 10.9549 16.8896 10.9549C16.8896 10.9549 17.4896 11.3139 18.4248 11.5472C19.0954 11.7133 20 11.7488 20 11.7488V9.36155C19.6834 9.3939 19.0401 9.30058 18.3808 8.99447L18.3815 8.99385Z"/>
</symbol><symbol viewBox="0 0 18 19" id="trash" xmlns="http://www.w3.org/2000/svg">
    <g clip-path="url(#iclip0_139_13992)">
        <path d="M3 4.75H15L13.815 16.0075C13.7744 16.3949 13.5998 16.7529 13.3247 17.0129C13.0496 17.2729 12.6933 17.4167 12.324 17.4167H5.676C5.30673 17.4167 4.95042 17.2729 4.67531 17.0129C4.4002 16.7529 4.22562 16.3949 4.185 16.0075L3 4.75Z" stroke-width="2" stroke-linecap="round" stroke-linejoin="round"/>
        <path d="M5.50875 2.49105C5.63006 2.21948 5.82203 1.98992 6.06225 1.82915C6.30248 1.66837 6.58106 1.583 6.8655 1.58301H11.1345C11.4191 1.58285 11.6978 1.66815 11.9382 1.82893C12.1785 1.98972 12.3706 2.21936 12.492 2.49105L13.5 4.74967H4.5L5.50875 2.49105Z" stroke-width="2" stroke-linecap="round" stroke-linejoin="round"/>
        <path d="M1.5 4.75H16.5" stroke-width="2" stroke-linecap="round" stroke-linejoin="round"/>
        <path d="M7.5 8.70801V12.6663" stroke-width="2" stroke-linecap="round" stroke-linejoin="round"/>
        <path d="M10.5 8.70801V12.6663" stroke-width="2" stroke-linecap="round" stroke-linejoin="round"/>
    </g>
    <defs>
        <clipPath id="iclip0_139_13992">
            <rect width="18" height="19"/>
        </clipPath>
    </defs>
</symbol><symbol viewBox="0 0 26 26" id="vkontakte" xmlns="http://www.w3.org/2000/svg">
    <g clip-path="url(#jclip0_127_3076)">
        <path d="M4.82418 0C3.54626 0.00497977 2.3221 0.514839 1.41847 1.41847C0.514839 2.3221 0.00497977 3.54626 0 4.82418V21.1758C0.00497977 22.4537 0.514839 23.6779 1.41847 24.5815C2.3221 25.4852 3.54626 25.995 4.82418 26H21.1758C22.4537 25.995 23.6779 25.4852 24.5815 24.5815C25.4852 23.6779 25.995 22.4537 26 21.1758V4.82418C25.995 3.54626 25.4852 2.3221 24.5815 1.41847C23.6779 0.514839 22.4537 0.00497977 21.1758 0H4.82418ZM4.82418 2.36364H21.1758C22.5467 2.36364 23.6364 3.45327 23.6364 4.82418V21.1758C23.6364 22.5467 22.5467 23.6364 21.1758 23.6364H4.82418C4.50049 23.6384 4.17961 23.5762 3.88016 23.4532C3.58071 23.3303 3.30866 23.1491 3.07977 22.9202C2.85087 22.6913 2.66971 22.4193 2.54678 22.1198C2.42385 21.8204 2.3616 21.4995 2.36364 21.1758V4.82418C2.36364 3.45327 3.45327 2.36364 4.82418 2.36364ZM12.6679 8.54454C11.7993 8.53627 11.0606 8.54455 10.6458 8.74782C10.3681 8.88255 10.1565 9.18627 10.2854 9.20045C10.4473 9.22409 10.8113 9.30209 11.0063 9.56564C11.2545 9.90245 11.2462 10.6647 11.2462 10.6647C11.2462 10.6647 11.3845 12.7601 10.9082 13.0236C10.5808 13.2033 10.1329 12.8381 9.16382 11.1717C8.66982 10.3137 8.29636 9.36709 8.29636 9.36709C8.29636 9.36709 8.22545 9.191 8.09782 9.09882C7.94064 8.98418 7.72318 8.94636 7.72318 8.94636L5.41036 8.96054C5.41036 8.96054 5.06409 8.97473 4.94 9.12245C4.82418 9.26073 4.93055 9.53255 4.93055 9.53255C4.93055 9.53255 6.73991 13.7658 8.78918 15.899C10.6683 17.8573 12.8015 17.7273 12.8015 17.7273H13.7705C13.7705 17.7273 14.0613 17.6954 14.209 17.5382C14.3485 17.3905 14.3437 17.1127 14.3437 17.1127C14.3437 17.1127 14.3248 15.8163 14.9252 15.6225C15.5208 15.4369 16.2772 16.8775 17.0855 17.4318C17.7001 17.8514 18.1657 17.7592 18.1657 17.7592L20.3273 17.7273C20.3273 17.7273 21.4535 17.6575 20.9182 16.7665C20.8768 16.6979 20.6085 16.1117 19.3168 14.911C17.9589 13.6559 18.1397 13.8592 19.773 11.6846C20.7657 10.3598 21.1628 9.55145 21.0375 9.20045C20.9194 8.87309 20.189 8.96054 20.189 8.96054L17.7556 8.97473C17.7556 8.97473 17.576 8.95109 17.4425 9.03027C17.3506 9.09847 17.2775 9.1887 17.2297 9.29264C17.2297 9.29264 16.8421 10.3173 16.3292 11.1906C15.249 13.0272 14.8105 13.1288 14.6356 13.0142C14.2244 12.7459 14.326 11.9423 14.326 11.375C14.326 9.58809 14.5978 8.84945 13.8001 8.65682C13.5365 8.59182 13.3427 8.55045 12.6691 8.54454H12.6679Z"/>
    </g>
    <defs>
        <clipPath id="jclip0_127_3076">
            <rect width="26" height="26"/>
        </clipPath>
    </defs>
</symbol></svg>