<svg width="235" height="235" viewBox="0 0 235 235" fill="none" xmlns="http://www.w3.org/2000/svg">
<path d="M228.109 120.522L226.536 133.628C226.279 135.769 225.599 137.283 224.495 138.169C223.413 139.059 221.879 139.384 219.891 139.146C218.58 138.988 217.544 138.576 216.782 137.908C216.042 137.243 215.558 136.476 215.33 135.607C214.637 137.318 213.313 138.378 211.359 138.786C210.656 138.923 209.856 138.938 208.961 138.831C206.82 138.574 205.308 137.882 204.423 136.757C203.539 135.632 203.226 133.999 203.483 131.858L205.174 117.769L228.109 120.522ZM210.651 133.051C211.962 133.208 212.696 132.632 212.853 131.321L213.64 124.768L209.053 124.217L208.266 130.77C208.109 132.081 208.686 132.815 209.996 132.972L210.651 133.051ZM219.944 133.169C221.254 133.327 221.988 132.75 222.145 131.439L222.814 125.869L218.227 125.319L217.558 130.889C217.401 132.199 217.978 132.933 219.288 133.091L219.944 133.169Z" fill="white"/>
<path d="M195.911 156.486L202.216 139.29L223.904 147.243L217.599 164.438L213.261 162.848L217.521 151.229L213.339 149.696L209.987 158.835L205.65 157.245L209.001 148.105L204.509 146.458L200.248 158.076L195.911 156.486Z" fill="white"/>
<path d="M195.701 185.912C196.731 186.739 197.658 186.637 198.485 185.608L201.996 181.232C202.822 180.203 202.721 179.275 201.691 178.449L193.456 171.839C192.426 171.013 191.498 171.115 190.672 172.144L187.161 176.519C186.334 177.549 186.436 178.477 187.465 179.303L195.701 185.912ZM183.748 183.935C181.946 182.489 180.964 181.024 180.801 179.54C180.642 178.086 181.285 176.459 182.731 174.657L187.895 168.223C189.341 166.421 190.798 165.432 192.265 165.256C193.736 165.111 195.372 165.761 197.173 167.207L205.409 173.816C207.211 175.262 208.191 176.712 208.35 178.166C208.513 179.65 207.871 181.293 206.425 183.095L201.261 189.529C199.816 191.33 198.357 192.304 196.887 192.449C195.419 192.626 193.785 191.991 191.983 190.545L183.748 183.935Z" fill="white"/>
<path d="M161.472 193.211L166.502 189.468L181.13 195.857L172.855 184.739L177.62 181.192L191.412 199.723L186.383 203.466L171.754 197.077L180.029 208.195L175.264 211.742L161.472 193.211Z" fill="white"/>
<path d="M142.387 201.526L159.228 194.328L168.306 215.57L151.465 222.767L149.649 218.519L161.028 213.656L159.278 209.559L150.326 213.385L148.51 209.137L157.462 205.311L155.581 200.911L144.202 205.774L142.387 201.526Z" fill="white"/>
<path d="M135.543 217.039L129.673 217.95L128.914 213.059L134.784 212.148L135.543 217.039Z" fill="white"/>
<path d="M114.269 228.129L101.151 226.656C99.0085 226.416 97.4896 225.747 96.5943 224.651C95.6966 223.576 95.3595 222.043 95.5828 220.054C95.73 218.742 96.1345 217.703 96.7962 216.936C97.4554 216.191 98.2188 215.701 99.0864 215.466C97.3696 214.786 96.2996 213.471 95.8767 211.519C95.7341 210.817 95.7132 210.018 95.8138 209.122C96.0543 206.979 96.7338 205.461 97.8524 204.569C98.971 203.676 100.602 203.35 102.744 203.59L116.846 205.173L114.269 228.129ZM101.606 210.768C101.459 212.08 102.041 212.809 103.353 212.956L109.912 213.693L110.427 209.102L103.868 208.365C102.557 208.218 101.827 208.8 101.68 210.112L101.606 210.768ZM101.559 220.061C101.412 221.372 101.994 222.102 103.306 222.249L108.881 222.875L109.396 218.284L103.821 217.658C102.51 217.511 101.78 218.093 101.633 219.405L101.559 220.061Z" fill="white"/>
<path d="M78.1881 196.175L95.4304 202.351L87.6411 224.098L70.3987 217.922L71.9566 213.573L83.6068 217.746L85.1091 213.552L75.9442 210.269L77.5021 205.92L86.6669 209.202L88.2805 204.698L76.6302 200.525L78.1881 196.175Z" fill="white"/>
<path d="M48.7315 196.065C47.909 197.098 48.014 198.025 49.0465 198.847L53.4344 202.343C54.4669 203.165 55.3943 203.06 56.2168 202.028L62.7964 193.768C63.6189 192.736 63.5139 191.808 62.4814 190.986L58.0935 187.49C57.061 186.668 56.1335 186.773 55.3111 187.805L48.7315 196.065ZM50.665 184.104C52.1043 182.298 53.5659 181.31 55.0499 181.142C56.5029 180.978 58.1328 181.615 59.9396 183.054L66.3925 188.195C68.1993 189.634 69.1935 191.087 69.3752 192.554C69.526 194.024 68.8818 195.662 67.4425 197.469L60.8628 205.729C59.4235 207.536 57.9774 208.521 56.5244 208.686C55.0404 208.854 53.3951 208.218 51.5883 206.779L45.1354 201.639C43.3286 200.199 42.3498 198.745 42.199 197.274C42.0173 195.808 42.6461 194.171 44.0854 192.364L50.665 184.104Z" fill="white"/>
<path d="M41.3374 162.022L45.1176 167.024L38.835 181.699L49.8927 173.342L53.4739 178.081L35.0446 192.009L31.2643 187.006L37.5469 172.331L26.4893 180.688L22.908 175.949L41.3374 162.022Z" fill="white"/>
<path d="M32.9194 143.031L40.2424 159.818L19.0693 169.055L11.7462 152.267L15.9809 150.42L20.9289 161.763L25.0123 159.982L21.1198 151.059L25.3545 149.211L29.2469 158.134L33.6327 156.221L28.6847 144.878L32.9194 143.031Z" fill="white"/>
<path d="M17.3213 136.2L16.3876 130.334L21.276 129.556L22.2098 135.422L17.3213 136.2Z" fill="white"/>
<path d="M6.07897 115.089L7.50101 101.966C7.73328 99.8224 8.39605 98.3009 9.48931 97.4015C10.5607 96.4996 12.0916 96.1566 14.0819 96.3722C15.3942 96.5144 16.4352 96.9149 17.2047 97.5737C17.9523 98.23 18.4451 98.9915 18.6831 99.8582C19.3563 98.1387 20.6677 97.0638 22.6175 96.6333C23.3192 96.4881 24.1184 96.464 25.0152 96.5612C27.1586 96.7935 28.6789 97.4672 29.576 98.5823C30.4731 99.6974 30.8055 101.327 30.5732 103.47L29.0445 117.578L6.07897 115.089ZM23.391 102.36C22.0787 102.218 21.3515 102.803 21.2093 104.115L20.4982 110.677L25.0913 111.174L25.8024 104.613C25.9446 103.301 25.3595 102.573 24.0472 102.431L23.391 102.36ZM14.0982 102.349C12.7858 102.207 12.0586 102.792 11.9164 104.104L11.312 109.681L15.9051 110.179L16.5095 104.602C16.6517 103.289 16.0666 102.562 14.7543 102.42L14.0982 102.349Z" fill="white"/>
<path d="M37.8675 78.7121L31.7566 95.9776L9.98035 88.27L16.0913 71.0046L20.4466 72.5461L16.3175 84.2119L20.5172 85.6984L23.7654 76.5213L28.1207 78.0628L24.8725 87.2399L29.3833 88.8365L33.5123 77.1706L37.8675 78.7121Z" fill="white"/>
<path d="M37.589 49.4794C36.5506 48.6644 35.6239 48.7762 34.809 49.8146L31.3457 54.2279C30.5308 55.2664 30.6425 56.193 31.6809 57.0079L39.9883 63.5272C41.0268 64.3421 41.9534 64.2304 42.7683 63.1919L46.2317 58.7786C47.0466 57.7402 46.9349 56.8135 45.8964 55.9986L37.589 49.4794ZM49.5635 51.3257C51.3808 52.7518 52.3788 54.2062 52.5576 55.6889C52.7327 57.1406 52.1072 58.7751 50.6811 60.5924L45.5879 67.0825C44.1618 68.8998 42.7161 69.9046 41.2507 70.097C39.7817 70.2585 38.1385 69.6262 36.3213 68.2001L28.0139 61.6808C26.1966 60.2547 25.2005 58.8158 25.0254 57.364C24.8466 55.8814 25.4702 54.2314 26.8963 52.4142L31.9895 45.924C33.4156 44.1068 34.8631 43.1174 36.3322 42.9559C37.7976 42.7635 39.4389 43.3804 41.2561 44.8064L49.5635 51.3257Z" fill="white"/>
<path d="M71.7376 41.7131L66.7492 45.5115L52.0514 39.2825L60.448 50.3096L55.7221 53.9082L41.7277 35.5297L46.7162 31.7312L61.414 37.9602L53.0174 26.9332L57.7433 23.3346L71.7376 41.7131Z" fill="white"/>
<path d="M90.8051 33.0918L74.0453 40.4774L64.7301 19.3389L81.49 11.9533L83.353 16.181L72.0288 21.1712L73.8253 25.248L82.7337 21.3223L84.5967 25.55L75.6883 29.4757L77.6179 33.8544L88.9421 28.8641L90.8051 33.0918Z" fill="white"/>
<path d="M97.0609 17.5476L102.92 16.569L103.735 21.4513L97.8764 22.43L97.0609 17.5476Z" fill="white"/>
<path d="M117.989 6.06853L131.123 7.38957C133.268 7.60534 134.794 8.25638 135.702 9.34269C136.612 10.4071 136.967 11.9353 136.767 13.9272C136.635 15.2406 136.242 16.2846 135.589 17.0591C134.939 17.8118 134.181 18.3105 133.316 18.5552C135.041 19.2151 136.126 20.5182 136.571 22.4646C136.722 23.1651 136.752 23.9642 136.662 24.8617C136.446 27.0068 135.784 28.5322 134.676 29.4379C133.568 30.3435 131.941 30.6885 129.796 30.4727L115.677 29.0526L117.989 6.06853ZM130.851 23.2822C130.983 21.9688 130.392 21.246 129.079 21.1139L122.512 20.4534L122.05 25.0502L128.617 25.7107C129.93 25.8428 130.653 25.2522 130.785 23.9388L130.851 23.2822ZM130.791 13.9895C130.923 12.6761 130.332 11.9534 129.019 11.8213L123.437 11.2598L122.974 15.8566L128.556 16.4181C129.87 16.5502 130.592 15.9595 130.724 14.6462L130.791 13.9895Z" fill="white"/>
<path d="M154.806 37.565L137.495 31.5841L145.039 9.75047L162.349 15.7313L160.841 20.0981L149.144 16.0569L147.689 20.2677L156.891 23.4467L155.382 27.8135L146.181 24.6344L144.618 29.1571L156.315 33.1982L154.806 37.565Z" fill="white"/>
<path d="M184.075 37.037C184.883 35.9927 184.764 35.0668 183.72 34.2595L179.281 30.8284C178.237 30.0211 177.311 30.1396 176.504 31.1839L170.045 39.5386C169.238 40.583 169.356 41.5088 170.401 42.3161L174.839 45.7472C175.884 46.5545 176.809 46.436 177.617 45.3917L184.075 37.037ZM182.316 49.0246C180.903 50.8522 179.456 51.8608 177.975 52.0504C176.525 52.2361 174.886 51.6225 173.058 50.2097L166.531 45.164C164.703 43.7512 163.688 42.3128 163.485 40.8489C163.313 39.381 163.933 37.7333 165.346 35.9057L171.804 27.551C173.217 25.7234 174.649 24.7168 176.099 24.5311C177.58 24.3415 179.235 24.9531 181.063 26.3659L187.59 31.4116C189.417 32.8244 190.417 34.2648 190.589 35.7326C190.792 37.1966 190.188 38.8423 188.775 40.6699L182.316 49.0246Z" fill="white"/>
<path d="M192.173 71.1627L188.338 66.2021L194.459 51.4593L183.494 59.9361L179.861 55.2366L198.137 41.1086L201.972 46.0692L195.85 60.812L206.816 52.3352L210.448 57.0347L192.173 71.1627Z" fill="white"/>
<path d="M200.951 90.1735L193.44 73.4692L214.509 63.9967L222.019 80.7011L217.806 82.5955L212.731 71.3088L208.668 73.1357L212.66 82.0145L208.446 83.909L204.454 75.0302L200.09 76.9923L205.164 88.279L200.951 90.1735Z" fill="white"/>
<path d="M216.667 96.9345L217.668 102.79L212.789 103.624L211.787 97.7688L216.667 96.9345Z" fill="white"/>
</svg>
