<?xml version="1.0" encoding="utf-8"?><svg viewBox="0 0 88 87" xmlns="http://www.w3.org/2000/svg" xmlns:xlink="http://www.w3.org/1999/xlink"><style>:root>svg{display:none}:root>svg:target{display:block}</style><svg fill="none" viewBox="0 0 16 18" id="account" xmlns="http://www.w3.org/2000/svg">
    <g clip-path="url(#aa)">
        <path d="M11 10.594c-.96 0-1.423.531-3 .531s-2.036-.531-3-.531c-2.484 0-4.5 1.999-4.5 4.462v.85A1.6 1.6 0 0 0 2.107 17.5h11.786a1.6 1.6 0 0 0 1.607-1.594v-.85c0-2.463-2.016-4.462-4.5-4.462Zm2.893 5.312H2.107v-.85c0-1.58 1.3-2.868 2.893-2.868.489 0 1.282.53 3 .53 1.731 0 2.508-.53 3-.53 1.594 0 2.893 1.288 2.893 2.868v.85ZM8 10.062c2.662 0 4.821-2.141 4.821-4.78C12.821 2.641 10.661.5 8 .5 5.338.5 3.179 2.642 3.179 5.281c0 2.64 2.16 4.782 4.821 4.782Zm0-7.968c1.771 0 3.214 1.43 3.214 3.187S9.771 8.47 8 8.47 4.786 7.038 4.786 5.28c0-1.756 1.443-3.187 3.214-3.187Z" fill="#fff"/>
    </g>
    <defs>
        <clipPath id="aa">
            <path fill="#fff" transform="translate(.5 .5)" d="M0 0h15v17H0z"/>
        </clipPath>
    </defs>
</svg><svg fill="none" viewBox="0 0 18 20" id="arrow-right-bottom" xmlns="http://www.w3.org/2000/svg">
    <path d="m3 3.5 12 13m0 0V4.02m0 12.48H3.48" stroke="#fff" stroke-width="2.5" stroke-linecap="round" stroke-linejoin="round"/>
</svg><svg fill="none" viewBox="0 0 88 87" id="ball" xmlns="http://www.w3.org/2000/svg">
    <g clip-path="url(#ca)">
        <path d="M44 .113c-11.666.013-22.85 4.6-31.098 12.755C4.653 21.023.013 32.08 0 43.613c2.416 57.708 85.592 57.692 88 0-.013-11.534-4.653-22.59-12.902-30.745C66.85 4.713 55.665.126 44 .113Zm40.84 42.805-12.076-8.537 4.681-13.927a39.84 39.84 0 0 1 7.394 22.465Zm-9.71-25.425-5.421 16.125-11.345 4.721-12.793-9.485v-12.42L59.526 6.256a41.02 41.02 0 0 1 15.603 11.236ZM56.35 40.73l-4.13 15.311H35.778l-4.13-15.31L44 31.571l12.351 9.158Zm-.383-35.739L44 13.72 32.032 4.99a41.552 41.552 0 0 1 23.936 0ZM28.474 6.257 42.43 16.433v12.421l-12.803 9.492L18.352 33.8l-5.481-16.306A41.022 41.022 0 0 1 28.474 6.257Zm-17.92 14.197 4.682 13.927-12.075 8.538a39.839 39.839 0 0 1 7.394-22.465ZM3.272 46.66l14.04-9.925 11.229 4.529 4.248 15.75a1.513 1.513 0 0 0-.305.256l-5.873 7.411-17.371.128A39.797 39.797 0 0 1 3.271 46.66Zm8.107 21.24 14.856-.108 4.495 14.014A41.003 41.003 0 0 1 11.378 67.9Zm22.986 14.96L29.13 66.54l5.826-7.352c-.031-.115 17.71 0 17.73-.04l6.177 7.416-5.227 16.296a41.374 41.374 0 0 1-19.272 0Zm22.906-1.054 4.496-14.014 14.856.108A41.005 41.005 0 0 1 57.27 81.806ZM78.76 64.81l-17.394-.128-6.211-7.457 4.308-15.97 11.09-4.615L84.73 46.66A39.8 39.8 0 0 1 78.76 64.81Z" fill="#fff"/>
    </g>
    <defs>
        <clipPath id="ca">
            <path fill="#fff" d="M0 0h88v87H0z"/>
        </clipPath>
    </defs>
</svg><svg fill="none" viewBox="0 0 21 20" id="cart" xmlns="http://www.w3.org/2000/svg">
    <path d="M4.668 5.833H16.16a1.667 1.667 0 0 1 1.658 1.833l-.5 5a1.667 1.667 0 0 1-1.658 1.5H7.7a1.667 1.667 0 0 1-1.635-1.34L4.668 5.834Z" stroke="#fff" stroke-width="2" stroke-linejoin="round"/>
    <path d="m4.668 5.833-.675-2.702a.833.833 0 0 0-.808-.631H2.168M7.168 17.5h1.667M13.836 17.5h1.667" stroke="#fff" stroke-width="2" stroke-linecap="round" stroke-linejoin="round"/>
</svg><svg fill="none" viewBox="0 0 21 20" id="heart" xmlns="http://www.w3.org/2000/svg">
    <path d="M6.335 2.5c-2.301 0-4.167 1.847-4.167 4.125 0 1.84.73 6.204 7.907 10.617a.821.821 0 0 0 .853 0c7.177-4.413 7.907-8.778 7.907-10.617 0-2.278-1.866-4.125-4.167-4.125-2.3 0-4.167 2.5-4.167 2.5S8.635 2.5 6.335 2.5Z" stroke="#fff" stroke-width="2" stroke-linecap="round" stroke-linejoin="round"/>
</svg><svg fill="none" viewBox="0 0 35 67" id="hero-slider-arrow-left" xmlns="http://www.w3.org/2000/svg">
    <g clip-path="url(#fa)">
        <path d="M33.894 6.136a3.292 3.292 0 1 0-4.787-4.523L1.128 31.238a3.292 3.292 0 0 0 0 4.523l27.98 29.628a3.291 3.291 0 1 0 4.786-4.52L8.047 33.5 33.894 6.136Z" fill="#ADBDC7"/>
    </g>
    <defs>
        <clipPath id="fa">
            <path fill="#fff" d="M0 0h35v67H0z"/>
        </clipPath>
    </defs>
</svg><svg fill="none" viewBox="0 0 36 67" id="hero-slider-arrow-right" xmlns="http://www.w3.org/2000/svg">
    <g clip-path="url(#ga)">
        <path d="M1.929 6.136a3.292 3.292 0 1 1 4.786-4.523l27.979 29.625a3.292 3.292 0 0 1 0 4.523L6.714 65.389a3.292 3.292 0 1 1-4.785-4.52L27.775 33.5 1.929 6.136Z" fill="#ADBDC7"/>
    </g>
    <defs>
        <clipPath id="ga">
            <path fill="#fff" transform="matrix(-1 0 0 1 35.822 0)" d="M0 0h35v67H0z"/>
        </clipPath>
    </defs>
</svg><svg fill="none" viewBox="0 0 26 26" id="instagram" xmlns="http://www.w3.org/2000/svg">
    <g clip-path="url(#ha)">
        <path fill-rule="evenodd" clip-rule="evenodd" d="M7.677.167C9.054.104 9.493.09 13 .09c3.506 0 3.945.015 5.32.077 1.376.063 2.315.282 3.137.6.86.325 1.64.833 2.286 1.49a6.306 6.306 0 0 1 1.488 2.286c.32.821.537 1.76.6 3.133.064 1.38.078 1.818.078 5.324s-.015 3.945-.077 5.322c-.062 1.373-.282 2.312-.601 3.133a6.331 6.331 0 0 1-1.488 2.288 6.33 6.33 0 0 1-2.286 1.488c-.822.32-1.76.537-3.134.6-1.378.064-1.817.078-5.323.078-3.507 0-3.946-.015-5.323-.077-1.373-.062-2.312-.282-3.133-.601a6.332 6.332 0 0 1-2.288-1.488 6.328 6.328 0 0 1-1.489-2.286c-.318-.822-.536-1.76-.6-3.134C.104 16.944.09 16.505.09 13c0-3.507.015-3.946.077-5.322.063-1.375.282-2.314.6-3.135a6.333 6.333 0 0 1 1.49-2.287A6.328 6.328 0 0 1 4.543.767c.821-.318 1.76-.536 3.133-.6h.001Zm10.54 2.324c-1.362-.062-1.77-.075-5.217-.075-3.447 0-3.856.013-5.217.075-1.26.058-1.942.268-2.398.445a4.009 4.009 0 0 0-1.484.965 4.004 4.004 0 0 0-.965 1.484c-.177.456-.387 1.139-.445 2.398-.062 1.361-.075 1.77-.075 5.217 0 3.447.013 3.855.075 5.216.058 1.26.268 1.943.445 2.398.206.56.536 1.068.965 1.485.416.428.924.758 1.484.964.456.178 1.139.388 2.398.445 1.361.062 1.769.075 5.217.075 3.448 0 3.855-.013 5.216-.075 1.26-.057 1.943-.267 2.398-.445a4.01 4.01 0 0 0 1.485-.964 4.01 4.01 0 0 0 .964-1.485c.178-.455.388-1.138.445-2.398.062-1.361.075-1.77.075-5.216 0-3.447-.013-3.856-.075-5.217-.057-1.26-.267-1.942-.445-2.398a4.009 4.009 0 0 0-.964-1.484 4.006 4.006 0 0 0-1.485-.965c-.455-.177-1.138-.387-2.398-.445ZM11.35 16.98a4.306 4.306 0 1 0 3.1-8.034 4.307 4.307 0 0 0-3.1 8.034ZM8.307 8.307a6.636 6.636 0 1 1 9.385 9.385 6.636 6.636 0 0 1-9.385-9.385Zm12.8-.955a1.57 1.57 0 1 0-2.155-2.284 1.57 1.57 0 0 0 2.155 2.284Z" fill="#fff"/>
    </g>
    <defs>
        <clipPath id="ha">
            <path fill="#fff" d="M0 0h26v26H0z"/>
        </clipPath>
    </defs>
</svg><svg fill="none" viewBox="0 0 26 26" id="tiktok" xmlns="http://www.w3.org/2000/svg">
    <rect x="1" y="1" width="24" height="24" rx="4" stroke="#fff" stroke-width="2"/>
    <path d="M18.381 8.994a3.469 3.469 0 0 1-.295-.16 4.092 4.092 0 0 1-.758-.602c-.566-.604-.777-1.217-.854-1.645h.002C16.412 6.23 16.438 6 16.443 6h-2.576v9.297c0 .124 0 .248-.006.37l-.002.046c0 .006 0 .013-.002.02v.006a1.95 1.95 0 0 1-.334.938 2.13 2.13 0 0 1-.766.682 2.271 2.271 0 0 1-1.067.262c-1.2 0-2.173-.913-2.173-2.04 0-1.13.973-2.043 2.173-2.043.227 0 .453.034.67.1l.003-2.45a5.117 5.117 0 0 0-1.957.144 4.903 4.903 0 0 0-1.731.865c-.444.36-.817.79-1.103 1.269-.109.175-.52.879-.569 2.02-.031.647.177 1.319.277 1.595v.007c.062.163.304.72.7 1.19a5.11 5.11 0 0 0 1.115.983v-.006l.006.006c1.246.79 2.63.738 2.63.738.24-.009 1.041 0 1.952-.402a4.856 4.856 0 0 0 1.584-1.112c.367-.398.66-.85.864-1.34.233-.572.31-1.258.31-1.531V10.68c.032.018.449.275.449.275s.6.359 1.535.592c.67.166 1.575.202 1.575.202V9.362c-.317.032-.96-.061-1.62-.368h.002Z" fill="#fff"/>
</svg><svg fill="none" viewBox="0 0 18 19" id="trash" xmlns="http://www.w3.org/2000/svg">
    <g clip-path="url(#ja)" stroke="#fff" stroke-width="2" stroke-linecap="round" stroke-linejoin="round">
        <path d="M3 4.75h12l-1.185 11.258c-.04.387-.215.745-.49 1.005-.275.26-.632.404-1.001.404H5.676c-.37 0-.726-.144-1-.404a1.614 1.614 0 0 1-.491-1.006L3 4.75ZM5.509 2.491a1.56 1.56 0 0 1 .553-.662c.24-.16.52-.246.803-.246h4.27c.284 0 .563.085.803.246.24.16.433.39.554.662L13.5 4.75h-9L5.509 2.49ZM1.5 4.75h15M7.5 8.708v3.958M10.5 8.708v3.958"/>
    </g>
    <defs>
        <clipPath id="ja">
            <path fill="#fff" d="M0 0h18v19H0z"/>
        </clipPath>
    </defs>
</svg><svg fill="none" viewBox="0 0 26 26" id="vkontakte" xmlns="http://www.w3.org/2000/svg">
    <g clip-path="url(#ka)">
        <path d="M4.824 0A4.843 4.843 0 0 0 0 4.824v16.352A4.843 4.843 0 0 0 4.824 26h16.352A4.843 4.843 0 0 0 26 21.176V4.824A4.843 4.843 0 0 0 21.176 0H4.824Zm0 2.364h16.352c1.37 0 2.46 1.09 2.46 2.46v16.352c0 1.37-1.09 2.46-2.46 2.46H4.824a2.445 2.445 0 0 1-2.46-2.46V4.824c0-1.37 1.09-2.46 2.46-2.46Zm7.844 6.18c-.869-.008-1.607 0-2.022.204-.278.135-.49.438-.36.452.161.024.525.102.72.366.248.336.24 1.099.24 1.099s.138 2.095-.338 2.359c-.327.18-.775-.186-1.744-1.852-.494-.858-.868-1.805-.868-1.805s-.07-.176-.198-.268a1.03 1.03 0 0 0-.375-.153l-2.313.015s-.346.014-.47.161c-.116.139-.01.41-.01.41s1.81 4.234 3.86 6.367c1.878 1.958 4.012 1.828 4.012 1.828h.969s.29-.032.438-.189c.14-.148.135-.425.135-.425s-.02-1.297.581-1.49c.596-.186 1.352 1.255 2.16 1.809.615.42 1.08.327 1.08.327l2.162-.032s1.126-.07.591-.96c-.041-.07-.31-.655-1.601-1.856-1.358-1.255-1.177-1.052.456-3.226.993-1.325 1.39-2.134 1.265-2.485-.119-.327-.849-.24-.849-.24l-2.433.015s-.18-.024-.314.055a.68.68 0 0 0-.212.263s-.388 1.024-.9 1.898c-1.081 1.836-1.52 1.938-1.694 1.823-.412-.268-.31-1.072-.31-1.639 0-1.787.272-2.526-.526-2.718-.264-.065-.457-.107-1.13-.112h-.002Z" fill="#fff"/>
    </g>
    <defs>
        <clipPath id="ka">
            <path fill="#fff" d="M0 0h26v26H0z"/>
        </clipPath>
    </defs>
</svg></svg>